<mxfile host="app.diagrams.net" modified="2023-07-11T09:15:30.067Z" agent="Mozilla/5.0 (Windows NT 10.0; Win64; x64) AppleWebKit/537.36 (KHTML, like Gecko) Chrome/112.0.0.0 YaBrowser/23.5.4.674 Yowser/2.5 Safari/537.36" etag="mSUW1HzPW0xYLMrvjjAQ" version="21.6.1" type="github">
  <diagram name="Page-1" id="38b20595-45e3-9b7f-d5ca-b57f44c5b66d">
    <mxGraphModel dx="2509" dy="1900" grid="1" gridSize="10" guides="1" tooltips="1" connect="1" arrows="1" fold="1" page="1" pageScale="1" pageWidth="1100" pageHeight="850" background="none" math="0" shadow="0">
      <root>
        <mxCell id="0" />
        <mxCell id="1" parent="0" />
        <mxCell id="f0SfFcIlnjF7Y2JFcaJJ-1" value="" style="verticalLabelPosition=bottom;html=1;verticalAlign=top;align=center;shape=mxgraph.floorplan.wallCorner;fillColor=strokeColor;direction=south;" vertex="1" parent="1">
          <mxGeometry x="930" y="50" width="110" height="100" as="geometry" />
        </mxCell>
        <mxCell id="f0SfFcIlnjF7Y2JFcaJJ-2" value="" style="verticalLabelPosition=bottom;html=1;verticalAlign=top;align=center;shape=mxgraph.floorplan.wall;fillColor=strokeColor;direction=south;" vertex="1" parent="1">
          <mxGeometry x="1030" y="150" width="10" height="380" as="geometry" />
        </mxCell>
        <mxCell id="f0SfFcIlnjF7Y2JFcaJJ-3" value="" style="verticalLabelPosition=bottom;html=1;verticalAlign=top;align=center;shape=mxgraph.floorplan.wallCorner;fillColor=strokeColor;direction=west" vertex="1" parent="1">
          <mxGeometry x="780" y="460" width="260" height="100" as="geometry" />
        </mxCell>
        <mxCell id="f0SfFcIlnjF7Y2JFcaJJ-4" value="" style="verticalLabelPosition=bottom;html=1;verticalAlign=top;align=center;shape=mxgraph.floorplan.window;" vertex="1" parent="1">
          <mxGeometry x="830" y="50" width="100" height="10" as="geometry" />
        </mxCell>
        <mxCell id="f0SfFcIlnjF7Y2JFcaJJ-5" value="" style="verticalLabelPosition=bottom;html=1;verticalAlign=top;align=center;shape=mxgraph.floorplan.wallCorner;fillColor=strokeColor;" vertex="1" parent="1">
          <mxGeometry x="790" y="50" width="40" height="100" as="geometry" />
        </mxCell>
        <mxCell id="f0SfFcIlnjF7Y2JFcaJJ-6" value="" style="verticalLabelPosition=bottom;html=1;verticalAlign=top;align=center;shape=mxgraph.floorplan.wall;fillColor=strokeColor;direction=south;" vertex="1" parent="1">
          <mxGeometry x="790" y="150" width="10" height="310" as="geometry" />
        </mxCell>
        <mxCell id="f0SfFcIlnjF7Y2JFcaJJ-7" value="" style="verticalLabelPosition=bottom;html=1;verticalAlign=top;align=center;shape=mxgraph.floorplan.doorRight;aspect=fixed;" vertex="1" parent="1">
          <mxGeometry x="720" y="460" width="80" height="85" as="geometry" />
        </mxCell>
        <mxCell id="f0SfFcIlnjF7Y2JFcaJJ-8" value="" style="verticalLabelPosition=bottom;html=1;verticalAlign=top;align=center;shape=mxgraph.floorplan.dresser;" vertex="1" parent="1">
          <mxGeometry x="910" y="410" width="100" height="65" as="geometry" />
        </mxCell>
        <mxCell id="f0SfFcIlnjF7Y2JFcaJJ-9" value="" style="rounded=0;whiteSpace=wrap;html=1;fillColor=#FF0000;" vertex="1" parent="1">
          <mxGeometry x="482" y="264.5" width="20" height="20" as="geometry" />
        </mxCell>
        <mxCell id="f0SfFcIlnjF7Y2JFcaJJ-10" value="" style="rounded=0;whiteSpace=wrap;html=1;fillColor=#FF0000;" vertex="1" parent="1">
          <mxGeometry x="211" y="350" width="20" height="20" as="geometry" />
        </mxCell>
        <mxCell id="f0SfFcIlnjF7Y2JFcaJJ-12" value="" style="rounded=0;whiteSpace=wrap;html=1;fillColor=#FF0000;" vertex="1" parent="1">
          <mxGeometry x="1010" y="390" width="20" height="20" as="geometry" />
        </mxCell>
        <mxCell id="f0SfFcIlnjF7Y2JFcaJJ-14" value="&lt;b&gt;&lt;font style=&quot;font-size: 14px;&quot;&gt;17, 18&lt;/font&gt;&lt;/b&gt;" style="text;html=1;strokeColor=none;fillColor=none;align=center;verticalAlign=middle;whiteSpace=wrap;rounded=0;" vertex="1" parent="1">
          <mxGeometry x="1040" y="385" width="60" height="30" as="geometry" />
        </mxCell>
        <mxCell id="f0SfFcIlnjF7Y2JFcaJJ-15" value="" style="endArrow=classic;startArrow=classic;html=1;rounded=0;exitX=0.073;exitY=0.1;exitDx=0;exitDy=0;exitPerimeter=0;" edge="1" parent="1" source="f0SfFcIlnjF7Y2JFcaJJ-3">
          <mxGeometry width="50" height="50" relative="1" as="geometry">
            <mxPoint x="980" y="540" as="sourcePoint" />
            <mxPoint x="1021" y="410" as="targetPoint" />
          </mxGeometry>
        </mxCell>
        <mxCell id="f0SfFcIlnjF7Y2JFcaJJ-17" value="&lt;b&gt;&lt;font style=&quot;font-size: 14px;&quot;&gt;1.5м&lt;/font&gt;&lt;/b&gt;" style="text;html=1;strokeColor=none;fillColor=none;align=center;verticalAlign=middle;whiteSpace=wrap;rounded=0;" vertex="1" parent="1">
          <mxGeometry x="970" y="500" width="60" height="30" as="geometry" />
        </mxCell>
        <mxCell id="f0SfFcIlnjF7Y2JFcaJJ-18" value="" style="verticalLabelPosition=bottom;html=1;verticalAlign=top;align=center;shape=mxgraph.floorplan.desk_corner;direction=north;" vertex="1" parent="1">
          <mxGeometry x="910" y="290" width="100" height="120" as="geometry" />
        </mxCell>
        <mxCell id="f0SfFcIlnjF7Y2JFcaJJ-20" value="" style="verticalLabelPosition=bottom;html=1;verticalAlign=top;align=center;shape=mxgraph.floorplan.desk_corner;direction=east;" vertex="1" parent="1">
          <mxGeometry x="910" y="60" width="120" height="100" as="geometry" />
        </mxCell>
        <mxCell id="f0SfFcIlnjF7Y2JFcaJJ-21" value="" style="verticalLabelPosition=bottom;html=1;verticalAlign=top;align=center;shape=mxgraph.floorplan.desk_corner;direction=south;" vertex="1" parent="1">
          <mxGeometry x="815" y="60" width="100" height="100" as="geometry" />
        </mxCell>
        <mxCell id="f0SfFcIlnjF7Y2JFcaJJ-22" value="" style="rounded=0;whiteSpace=wrap;html=1;fillColor=#FF0000;" vertex="1" parent="1">
          <mxGeometry x="1010" y="110" width="20" height="20" as="geometry" />
        </mxCell>
        <mxCell id="f0SfFcIlnjF7Y2JFcaJJ-23" value="&lt;b&gt;&lt;font style=&quot;font-size: 14px;&quot;&gt;15, 16&lt;/font&gt;&lt;/b&gt;" style="text;html=1;strokeColor=none;fillColor=none;align=center;verticalAlign=middle;whiteSpace=wrap;rounded=0;" vertex="1" parent="1">
          <mxGeometry x="1040" y="120" width="60" height="30" as="geometry" />
        </mxCell>
        <mxCell id="f0SfFcIlnjF7Y2JFcaJJ-24" value="" style="endArrow=classic;startArrow=classic;html=1;rounded=0;" edge="1" parent="1">
          <mxGeometry width="50" height="50" relative="1" as="geometry">
            <mxPoint x="1060" y="120" as="sourcePoint" />
            <mxPoint x="1060" y="60" as="targetPoint" />
          </mxGeometry>
        </mxCell>
        <mxCell id="f0SfFcIlnjF7Y2JFcaJJ-25" value="&lt;span style=&quot;font-size: 14px;&quot;&gt;&lt;b&gt;1м&lt;/b&gt;&lt;/span&gt;" style="text;html=1;strokeColor=none;fillColor=none;align=center;verticalAlign=middle;whiteSpace=wrap;rounded=0;" vertex="1" parent="1">
          <mxGeometry x="1050" y="80" width="60" height="30" as="geometry" />
        </mxCell>
        <mxCell id="f0SfFcIlnjF7Y2JFcaJJ-26" value="" style="rounded=0;whiteSpace=wrap;html=1;fillColor=#FF0000;" vertex="1" parent="1">
          <mxGeometry x="800" y="170" width="20" height="20" as="geometry" />
        </mxCell>
        <mxCell id="f0SfFcIlnjF7Y2JFcaJJ-27" value="" style="verticalLabelPosition=bottom;html=1;verticalAlign=top;align=center;shape=mxgraph.floorplan.dresser;" vertex="1" parent="1">
          <mxGeometry x="820" y="180" width="50" height="50" as="geometry" />
        </mxCell>
        <mxCell id="f0SfFcIlnjF7Y2JFcaJJ-28" value="&lt;b&gt;&lt;font style=&quot;font-size: 14px;&quot;&gt;19, 20&lt;/font&gt;&lt;/b&gt;" style="text;html=1;strokeColor=none;fillColor=none;align=center;verticalAlign=middle;whiteSpace=wrap;rounded=0;" vertex="1" parent="1">
          <mxGeometry x="815" y="150" width="60" height="30" as="geometry" />
        </mxCell>
        <mxCell id="f0SfFcIlnjF7Y2JFcaJJ-30" value="&lt;span style=&quot;font-size: 14px;&quot;&gt;&lt;b&gt;1,8м&lt;/b&gt;&lt;/span&gt;" style="text;html=1;strokeColor=none;fillColor=none;align=center;verticalAlign=middle;whiteSpace=wrap;rounded=0;" vertex="1" parent="1">
          <mxGeometry x="800" y="105" width="60" height="30" as="geometry" />
        </mxCell>
        <mxCell id="f0SfFcIlnjF7Y2JFcaJJ-31" value="&lt;font style=&quot;font-size: 36px;&quot;&gt;&lt;b&gt;424&lt;/b&gt;&lt;/font&gt;" style="text;html=1;strokeColor=none;fillColor=none;align=center;verticalAlign=middle;whiteSpace=wrap;rounded=0;" vertex="1" parent="1">
          <mxGeometry x="815" y="380" width="60" height="30" as="geometry" />
        </mxCell>
        <mxCell id="f0SfFcIlnjF7Y2JFcaJJ-34" value="" style="verticalLabelPosition=bottom;html=1;verticalAlign=top;align=center;shape=mxgraph.floorplan.wallCorner;fillColor=strokeColor;direction=west" vertex="1" parent="1">
          <mxGeometry x="780" y="560" width="150" height="100" as="geometry" />
        </mxCell>
        <mxCell id="f0SfFcIlnjF7Y2JFcaJJ-37" value="" style="verticalLabelPosition=bottom;html=1;verticalAlign=top;align=center;shape=mxgraph.floorplan.doorLeft;aspect=fixed;direction=west;" vertex="1" parent="1">
          <mxGeometry x="712.94" y="560" width="87.06" height="92.5" as="geometry" />
        </mxCell>
        <mxCell id="f0SfFcIlnjF7Y2JFcaJJ-38" value="" style="verticalLabelPosition=bottom;html=1;verticalAlign=top;align=center;shape=mxgraph.floorplan.wall;fillColor=strokeColor;" vertex="1" parent="1">
          <mxGeometry x="710" y="450" width="90" height="10" as="geometry" />
        </mxCell>
        <mxCell id="f0SfFcIlnjF7Y2JFcaJJ-39" value="" style="verticalLabelPosition=bottom;html=1;verticalAlign=top;align=center;shape=mxgraph.floorplan.doorLeft;aspect=fixed;" vertex="1" parent="1">
          <mxGeometry x="630" y="450" width="80" height="85" as="geometry" />
        </mxCell>
        <mxCell id="f0SfFcIlnjF7Y2JFcaJJ-40" value="" style="verticalLabelPosition=bottom;html=1;verticalAlign=top;align=center;shape=mxgraph.floorplan.wall;fillColor=strokeColor;" vertex="1" parent="1">
          <mxGeometry x="480" y="450" width="150" height="10" as="geometry" />
        </mxCell>
        <mxCell id="f0SfFcIlnjF7Y2JFcaJJ-41" value="" style="verticalLabelPosition=bottom;html=1;verticalAlign=top;align=center;shape=mxgraph.floorplan.wall;fillColor=strokeColor;" vertex="1" parent="1">
          <mxGeometry x="600" y="651" width="190" height="10" as="geometry" />
        </mxCell>
        <mxCell id="f0SfFcIlnjF7Y2JFcaJJ-42" value="" style="verticalLabelPosition=bottom;html=1;verticalAlign=top;align=center;shape=mxgraph.floorplan.doorRight;aspect=fixed;" vertex="1" parent="1">
          <mxGeometry x="520" y="660" width="80" height="85" as="geometry" />
        </mxCell>
        <mxCell id="f0SfFcIlnjF7Y2JFcaJJ-43" value="" style="verticalLabelPosition=bottom;html=1;verticalAlign=top;align=center;shape=mxgraph.floorplan.wall;fillColor=strokeColor;" vertex="1" parent="1">
          <mxGeometry x="480" y="653" width="40" height="10" as="geometry" />
        </mxCell>
        <mxCell id="f0SfFcIlnjF7Y2JFcaJJ-44" value="" style="verticalLabelPosition=bottom;html=1;verticalAlign=top;align=center;shape=mxgraph.floorplan.wall;fillColor=strokeColor;direction=south;" vertex="1" parent="1">
          <mxGeometry x="471" y="580" width="10" height="83" as="geometry" />
        </mxCell>
        <mxCell id="f0SfFcIlnjF7Y2JFcaJJ-45" value="" style="verticalLabelPosition=bottom;html=1;verticalAlign=top;align=center;shape=mxgraph.floorplan.wall;fillColor=strokeColor;direction=south;" vertex="1" parent="1">
          <mxGeometry x="471" y="450" width="10" height="40" as="geometry" />
        </mxCell>
        <mxCell id="f0SfFcIlnjF7Y2JFcaJJ-46" value="" style="verticalLabelPosition=bottom;html=1;verticalAlign=top;align=center;shape=mxgraph.floorplan.doorLeft;aspect=fixed;" vertex="1" parent="1">
          <mxGeometry x="471" y="490" width="80" height="85" as="geometry" />
        </mxCell>
        <mxCell id="f0SfFcIlnjF7Y2JFcaJJ-47" value="" style="verticalLabelPosition=bottom;html=1;verticalAlign=top;align=center;shape=mxgraph.floorplan.wall;fillColor=strokeColor;" vertex="1" parent="1">
          <mxGeometry x="210" y="651" width="270" height="10" as="geometry" />
        </mxCell>
        <mxCell id="f0SfFcIlnjF7Y2JFcaJJ-48" value="" style="verticalLabelPosition=bottom;html=1;verticalAlign=top;align=center;shape=mxgraph.floorplan.dresser;direction=south;" vertex="1" parent="1">
          <mxGeometry x="288" y="340" width="65" height="120" as="geometry" />
        </mxCell>
        <mxCell id="f0SfFcIlnjF7Y2JFcaJJ-50" value="" style="verticalLabelPosition=bottom;html=1;verticalAlign=top;align=center;shape=mxgraph.floorplan.toilet;direction=south;" vertex="1" parent="1">
          <mxGeometry x="870" y="588.5" width="47.5" height="35.5" as="geometry" />
        </mxCell>
        <mxCell id="f0SfFcIlnjF7Y2JFcaJJ-51" value="" style="verticalLabelPosition=bottom;html=1;verticalAlign=top;align=center;shape=mxgraph.floorplan.table;" vertex="1" parent="1">
          <mxGeometry x="220" y="589" width="240" height="50" as="geometry" />
        </mxCell>
        <mxCell id="f0SfFcIlnjF7Y2JFcaJJ-52" value="" style="verticalLabelPosition=bottom;html=1;verticalAlign=top;align=center;shape=mxgraph.floorplan.wall;fillColor=strokeColor;direction=south;" vertex="1" parent="1">
          <mxGeometry x="201" y="50" width="10" height="610" as="geometry" />
        </mxCell>
        <mxCell id="f0SfFcIlnjF7Y2JFcaJJ-53" value="" style="verticalLabelPosition=bottom;html=1;verticalAlign=top;align=center;shape=mxgraph.floorplan.wall;fillColor=strokeColor;" vertex="1" parent="1">
          <mxGeometry x="200" y="50" width="40" height="10" as="geometry" />
        </mxCell>
        <mxCell id="f0SfFcIlnjF7Y2JFcaJJ-54" value="" style="verticalLabelPosition=bottom;html=1;verticalAlign=top;align=center;shape=mxgraph.floorplan.wall;fillColor=strokeColor;" vertex="1" parent="1">
          <mxGeometry x="700" y="51" width="100" height="10" as="geometry" />
        </mxCell>
        <mxCell id="f0SfFcIlnjF7Y2JFcaJJ-56" value="" style="verticalLabelPosition=bottom;html=1;verticalAlign=top;align=center;shape=mxgraph.floorplan.wall;fillColor=strokeColor;" vertex="1" parent="1">
          <mxGeometry x="320" y="51" width="60" height="10" as="geometry" />
        </mxCell>
        <mxCell id="f0SfFcIlnjF7Y2JFcaJJ-57" value="" style="verticalLabelPosition=bottom;html=1;verticalAlign=top;align=center;shape=mxgraph.floorplan.window;" vertex="1" parent="1">
          <mxGeometry x="380" y="52" width="80" height="10" as="geometry" />
        </mxCell>
        <mxCell id="f0SfFcIlnjF7Y2JFcaJJ-58" value="" style="verticalLabelPosition=bottom;html=1;verticalAlign=top;align=center;shape=mxgraph.floorplan.wall;fillColor=strokeColor;direction=south;" vertex="1" parent="1">
          <mxGeometry x="472" y="60" width="10" height="400" as="geometry" />
        </mxCell>
        <mxCell id="f0SfFcIlnjF7Y2JFcaJJ-59" value="" style="verticalLabelPosition=bottom;html=1;verticalAlign=top;align=center;shape=mxgraph.floorplan.wall;fillColor=strokeColor;" vertex="1" parent="1">
          <mxGeometry x="460" y="52" width="22" height="10" as="geometry" />
        </mxCell>
        <mxCell id="f0SfFcIlnjF7Y2JFcaJJ-60" value="" style="verticalLabelPosition=bottom;html=1;verticalAlign=top;align=center;shape=mxgraph.floorplan.window;" vertex="1" parent="1">
          <mxGeometry x="240" y="50" width="80" height="10" as="geometry" />
        </mxCell>
        <mxCell id="f0SfFcIlnjF7Y2JFcaJJ-61" value="" style="verticalLabelPosition=bottom;html=1;verticalAlign=top;align=center;shape=mxgraph.floorplan.desk_corner;direction=south;" vertex="1" parent="1">
          <mxGeometry x="253" y="65" width="100" height="100" as="geometry" />
        </mxCell>
        <mxCell id="f0SfFcIlnjF7Y2JFcaJJ-62" value="" style="verticalLabelPosition=bottom;html=1;verticalAlign=top;align=center;shape=mxgraph.floorplan.desk_corner;direction=east;" vertex="1" parent="1">
          <mxGeometry x="351" y="65" width="120" height="100" as="geometry" />
        </mxCell>
        <mxCell id="f0SfFcIlnjF7Y2JFcaJJ-63" value="" style="verticalLabelPosition=bottom;html=1;verticalAlign=top;align=center;shape=mxgraph.floorplan.dresser;" vertex="1" parent="1">
          <mxGeometry x="211" y="65" width="40" height="40" as="geometry" />
        </mxCell>
        <mxCell id="f0SfFcIlnjF7Y2JFcaJJ-11" value="" style="rounded=0;whiteSpace=wrap;html=1;fillColor=#FF0000;" vertex="1" parent="1">
          <mxGeometry x="440" y="75" width="20" height="20" as="geometry" />
        </mxCell>
        <mxCell id="f0SfFcIlnjF7Y2JFcaJJ-65" value="" style="verticalLabelPosition=bottom;html=1;verticalAlign=top;align=center;shape=mxgraph.floorplan.dresser;direction=south;" vertex="1" parent="1">
          <mxGeometry x="288" y="230" width="65" height="110" as="geometry" />
        </mxCell>
        <mxCell id="f0SfFcIlnjF7Y2JFcaJJ-66" value="&lt;b&gt;&lt;font style=&quot;font-size: 14px;&quot;&gt;27, 28&lt;/font&gt;&lt;/b&gt;" style="text;html=1;strokeColor=none;fillColor=none;align=center;verticalAlign=middle;whiteSpace=wrap;rounded=0;" vertex="1" parent="1">
          <mxGeometry x="411" y="10" width="60" height="30" as="geometry" />
        </mxCell>
        <mxCell id="f0SfFcIlnjF7Y2JFcaJJ-67" value="&lt;b&gt;&lt;font style=&quot;font-size: 14px;&quot;&gt;29&lt;/font&gt;&lt;/b&gt;" style="text;html=1;strokeColor=none;fillColor=none;align=center;verticalAlign=middle;whiteSpace=wrap;rounded=0;" vertex="1" parent="1">
          <mxGeometry x="193" y="325" width="60" height="30" as="geometry" />
        </mxCell>
        <mxCell id="f0SfFcIlnjF7Y2JFcaJJ-68" value="" style="endArrow=classic;startArrow=classic;html=1;rounded=0;entryX=0.5;entryY=1;entryDx=0;entryDy=0;exitX=0.037;exitY=-0.071;exitDx=0;exitDy=0;exitPerimeter=0;" edge="1" parent="1" source="f0SfFcIlnjF7Y2JFcaJJ-47" target="f0SfFcIlnjF7Y2JFcaJJ-10">
          <mxGeometry width="50" height="50" relative="1" as="geometry">
            <mxPoint x="190" y="460" as="sourcePoint" />
            <mxPoint x="240" y="410" as="targetPoint" />
          </mxGeometry>
        </mxCell>
        <mxCell id="f0SfFcIlnjF7Y2JFcaJJ-69" value="&lt;b&gt;&lt;font style=&quot;font-size: 14px;&quot;&gt;2м&lt;/font&gt;&lt;/b&gt;" style="text;html=1;strokeColor=none;fillColor=none;align=center;verticalAlign=middle;whiteSpace=wrap;rounded=0;" vertex="1" parent="1">
          <mxGeometry x="201" y="487.5" width="60" height="30" as="geometry" />
        </mxCell>
        <mxCell id="f0SfFcIlnjF7Y2JFcaJJ-70" value="" style="verticalLabelPosition=bottom;html=1;verticalAlign=top;align=center;shape=mxgraph.floorplan.chair;direction=north;" vertex="1" parent="1">
          <mxGeometry x="236" y="370" width="52" height="41" as="geometry" />
        </mxCell>
        <mxCell id="f0SfFcIlnjF7Y2JFcaJJ-71" value="" style="verticalLabelPosition=bottom;html=1;verticalAlign=top;align=center;shape=mxgraph.floorplan.chair;direction=north;" vertex="1" parent="1">
          <mxGeometry x="220" y="264.5" width="52" height="41" as="geometry" />
        </mxCell>
        <mxCell id="f0SfFcIlnjF7Y2JFcaJJ-72" value="" style="verticalLabelPosition=bottom;html=1;verticalAlign=top;align=center;shape=mxgraph.floorplan.chair;direction=west;" vertex="1" parent="1">
          <mxGeometry x="935.5" y="482" width="41" height="52" as="geometry" />
        </mxCell>
        <mxCell id="f0SfFcIlnjF7Y2JFcaJJ-74" value="" style="verticalLabelPosition=bottom;html=1;verticalAlign=top;align=center;shape=mxgraph.floorplan.desk_corner;" vertex="1" parent="1">
          <mxGeometry x="640" y="65" width="150" height="205" as="geometry" />
        </mxCell>
        <mxCell id="f0SfFcIlnjF7Y2JFcaJJ-29" value="" style="endArrow=classic;startArrow=classic;html=1;rounded=0;exitX=1;exitY=0.25;exitDx=0;exitDy=0;" edge="1" parent="1">
          <mxGeometry width="50" height="50" relative="1" as="geometry">
            <mxPoint x="809.41" y="173.75" as="sourcePoint" />
            <mxPoint x="809.41" y="56.25" as="targetPoint" />
          </mxGeometry>
        </mxCell>
        <mxCell id="f0SfFcIlnjF7Y2JFcaJJ-75" value="" style="verticalLabelPosition=bottom;html=1;verticalAlign=top;align=center;shape=mxgraph.floorplan.desk_corner;direction=south;" vertex="1" parent="1">
          <mxGeometry x="490" y="65" width="150" height="205" as="geometry" />
        </mxCell>
        <mxCell id="f0SfFcIlnjF7Y2JFcaJJ-76" value="" style="verticalLabelPosition=bottom;html=1;verticalAlign=top;align=center;shape=mxgraph.floorplan.window;" vertex="1" parent="1">
          <mxGeometry x="570" y="50" width="130" height="10" as="geometry" />
        </mxCell>
        <mxCell id="f0SfFcIlnjF7Y2JFcaJJ-77" value="" style="verticalLabelPosition=bottom;html=1;verticalAlign=top;align=center;shape=mxgraph.floorplan.wall;fillColor=strokeColor;" vertex="1" parent="1">
          <mxGeometry x="480" y="53" width="90" height="10" as="geometry" />
        </mxCell>
        <mxCell id="f0SfFcIlnjF7Y2JFcaJJ-78" value="" style="verticalLabelPosition=bottom;html=1;verticalAlign=top;align=center;shape=mxgraph.floorplan.chair;direction=north;" vertex="1" parent="1">
          <mxGeometry x="484.5" y="295.5" width="52" height="41" as="geometry" />
        </mxCell>
        <mxCell id="f0SfFcIlnjF7Y2JFcaJJ-79" value="" style="verticalLabelPosition=bottom;html=1;verticalAlign=top;align=center;shape=mxgraph.floorplan.chair;direction=north;" vertex="1" parent="1">
          <mxGeometry x="484.5" y="344" width="52" height="41" as="geometry" />
        </mxCell>
        <mxCell id="f0SfFcIlnjF7Y2JFcaJJ-80" value="" style="verticalLabelPosition=bottom;html=1;verticalAlign=top;align=center;shape=mxgraph.floorplan.chair;direction=west;" vertex="1" parent="1">
          <mxGeometry x="555.5" y="394.5" width="41" height="52" as="geometry" />
        </mxCell>
        <mxCell id="f0SfFcIlnjF7Y2JFcaJJ-81" value="" style="verticalLabelPosition=bottom;html=1;verticalAlign=top;align=center;shape=mxgraph.floorplan.dresser;" vertex="1" parent="1">
          <mxGeometry x="490" y="394.5" width="50" height="50" as="geometry" />
        </mxCell>
        <mxCell id="f0SfFcIlnjF7Y2JFcaJJ-82" value="" style="verticalLabelPosition=bottom;html=1;verticalAlign=top;align=center;shape=mxgraph.floorplan.couch;direction=south;" vertex="1" parent="1">
          <mxGeometry x="710" y="340" width="80" height="106.5" as="geometry" />
        </mxCell>
        <mxCell id="f0SfFcIlnjF7Y2JFcaJJ-83" value="" style="verticalLabelPosition=bottom;html=1;verticalAlign=top;align=center;shape=mxgraph.floorplan.water_cooler;" vertex="1" parent="1">
          <mxGeometry x="725" y="284.5" width="60" height="50" as="geometry" />
        </mxCell>
        <mxCell id="f0SfFcIlnjF7Y2JFcaJJ-84" value="&lt;b&gt;&lt;font style=&quot;font-size: 14px;&quot;&gt;33, 34&lt;/font&gt;&lt;/b&gt;" style="text;html=1;strokeColor=none;fillColor=none;align=center;verticalAlign=middle;whiteSpace=wrap;rounded=0;" vertex="1" parent="1">
          <mxGeometry x="510" y="259.5" width="60" height="30" as="geometry" />
        </mxCell>
        <mxCell id="f0SfFcIlnjF7Y2JFcaJJ-85" value="" style="verticalLabelPosition=bottom;html=1;verticalAlign=top;align=center;shape=mxgraph.floorplan.wall;fillColor=strokeColor;" vertex="1" parent="1">
          <mxGeometry x="-80" y="651" width="290" height="10" as="geometry" />
        </mxCell>
        <mxCell id="f0SfFcIlnjF7Y2JFcaJJ-86" value="" style="rounded=0;whiteSpace=wrap;html=1;fillColor=#FF0000;" vertex="1" parent="1">
          <mxGeometry x="180" y="492.5" width="20" height="20" as="geometry" />
        </mxCell>
        <mxCell id="f0SfFcIlnjF7Y2JFcaJJ-88" value="&lt;b&gt;&lt;font style=&quot;font-size: 14px;&quot;&gt;Пустой&lt;/font&gt;&lt;/b&gt;" style="text;html=1;strokeColor=none;fillColor=none;align=center;verticalAlign=middle;whiteSpace=wrap;rounded=0;" vertex="1" parent="1">
          <mxGeometry x="140" y="462.5" width="60" height="30" as="geometry" />
        </mxCell>
        <mxCell id="f0SfFcIlnjF7Y2JFcaJJ-90" value="" style="verticalLabelPosition=bottom;html=1;verticalAlign=top;align=center;shape=mxgraph.floorplan.range_2;" vertex="1" parent="1">
          <mxGeometry x="119" y="583" width="75" height="62" as="geometry" />
        </mxCell>
        <mxCell id="f0SfFcIlnjF7Y2JFcaJJ-91" value="" style="rounded=0;whiteSpace=wrap;html=1;fillColor=#FF0000;" vertex="1" parent="1">
          <mxGeometry x="99" y="631" width="20" height="20" as="geometry" />
        </mxCell>
        <mxCell id="f0SfFcIlnjF7Y2JFcaJJ-92" value="&lt;b&gt;&lt;font style=&quot;font-size: 14px;&quot;&gt;Не подписано, что-то подключено&lt;/font&gt;&lt;/b&gt;" style="text;html=1;strokeColor=none;fillColor=none;align=center;verticalAlign=middle;whiteSpace=wrap;rounded=0;" vertex="1" parent="1">
          <mxGeometry x="25" y="570" width="100" height="30" as="geometry" />
        </mxCell>
        <mxCell id="f0SfFcIlnjF7Y2JFcaJJ-93" style="edgeStyle=orthogonalEdgeStyle;rounded=0;orthogonalLoop=1;jettySize=auto;html=1;exitX=0.5;exitY=1;exitDx=0;exitDy=0;" edge="1" parent="1" source="f0SfFcIlnjF7Y2JFcaJJ-92" target="f0SfFcIlnjF7Y2JFcaJJ-92">
          <mxGeometry relative="1" as="geometry" />
        </mxCell>
        <mxCell id="f0SfFcIlnjF7Y2JFcaJJ-94" value="" style="verticalLabelPosition=bottom;html=1;verticalAlign=top;align=center;shape=mxgraph.floorplan.wall;fillColor=strokeColor;" vertex="1" parent="1">
          <mxGeometry x="70" y="51" width="49" height="10" as="geometry" />
        </mxCell>
        <mxCell id="f0SfFcIlnjF7Y2JFcaJJ-95" value="" style="verticalLabelPosition=bottom;html=1;verticalAlign=top;align=center;shape=mxgraph.floorplan.window;" vertex="1" parent="1">
          <mxGeometry x="121" y="51" width="80" height="10" as="geometry" />
        </mxCell>
        <mxCell id="f0SfFcIlnjF7Y2JFcaJJ-96" value="" style="verticalLabelPosition=bottom;html=1;verticalAlign=top;align=center;shape=mxgraph.floorplan.window;" vertex="1" parent="1">
          <mxGeometry x="-10" y="51" width="80" height="10" as="geometry" />
        </mxCell>
        <mxCell id="f0SfFcIlnjF7Y2JFcaJJ-97" value="" style="verticalLabelPosition=bottom;html=1;verticalAlign=top;align=center;shape=mxgraph.floorplan.wall;fillColor=strokeColor;direction=south;" vertex="1" parent="1">
          <mxGeometry x="-19" y="51" width="10" height="449" as="geometry" />
        </mxCell>
        <mxCell id="f0SfFcIlnjF7Y2JFcaJJ-98" value="" style="verticalLabelPosition=bottom;html=1;verticalAlign=top;align=center;shape=mxgraph.floorplan.doorRight;aspect=fixed;direction=south;" vertex="1" parent="1">
          <mxGeometry x="-95" y="571" width="85" height="80" as="geometry" />
        </mxCell>
        <mxCell id="f0SfFcIlnjF7Y2JFcaJJ-100" value="" style="verticalLabelPosition=bottom;html=1;verticalAlign=top;align=center;shape=mxgraph.floorplan.doorRight;aspect=fixed;" vertex="1" parent="1">
          <mxGeometry x="-160" y="653" width="80" height="85" as="geometry" />
        </mxCell>
        <mxCell id="f0SfFcIlnjF7Y2JFcaJJ-102" value="" style="verticalLabelPosition=bottom;html=1;verticalAlign=top;align=center;shape=mxgraph.floorplan.wall;fillColor=strokeColor;" vertex="1" parent="1">
          <mxGeometry x="-110" y="497.5" width="101" height="10" as="geometry" />
        </mxCell>
        <mxCell id="f0SfFcIlnjF7Y2JFcaJJ-103" value="" style="verticalLabelPosition=bottom;html=1;verticalAlign=top;align=center;shape=mxgraph.floorplan.doorRight;aspect=fixed;" vertex="1" parent="1">
          <mxGeometry x="-190" y="498" width="80" height="85" as="geometry" />
        </mxCell>
        <mxCell id="f0SfFcIlnjF7Y2JFcaJJ-105" value="" style="verticalLabelPosition=bottom;html=1;verticalAlign=top;align=center;shape=mxgraph.floorplan.doorRight;aspect=fixed;direction=west;" vertex="1" parent="1">
          <mxGeometry x="-280" y="422.5" width="80" height="85" as="geometry" />
        </mxCell>
        <mxCell id="f0SfFcIlnjF7Y2JFcaJJ-106" value="" style="verticalLabelPosition=bottom;html=1;verticalAlign=top;align=center;shape=mxgraph.floorplan.wall;fillColor=strokeColor;" vertex="1" parent="1">
          <mxGeometry x="-499" y="500" width="220" height="10" as="geometry" />
        </mxCell>
        <mxCell id="f0SfFcIlnjF7Y2JFcaJJ-107" value="" style="verticalLabelPosition=bottom;html=1;verticalAlign=top;align=center;shape=mxgraph.floorplan.wall;fillColor=strokeColor;direction=west;" vertex="1" parent="1">
          <mxGeometry x="-390" y="653" width="230" height="10" as="geometry" />
        </mxCell>
        <mxCell id="f0SfFcIlnjF7Y2JFcaJJ-108" value="" style="verticalLabelPosition=bottom;html=1;verticalAlign=top;align=center;shape=mxgraph.floorplan.wall;fillColor=strokeColor;direction=south;" vertex="1" parent="1">
          <mxGeometry x="-399" y="580" width="10" height="80" as="geometry" />
        </mxCell>
        <mxCell id="f0SfFcIlnjF7Y2JFcaJJ-109" value="" style="verticalLabelPosition=bottom;html=1;verticalAlign=top;align=center;shape=mxgraph.floorplan.wall;fillColor=strokeColor;direction=south;" vertex="1" parent="1">
          <mxGeometry x="-509" y="500" width="10" height="166" as="geometry" />
        </mxCell>
        <mxCell id="f0SfFcIlnjF7Y2JFcaJJ-110" value="" style="verticalLabelPosition=bottom;html=1;verticalAlign=top;align=center;shape=mxgraph.floorplan.wall;fillColor=strokeColor;" vertex="1" parent="1">
          <mxGeometry x="-509" y="657" width="139" height="10" as="geometry" />
        </mxCell>
        <mxCell id="f0SfFcIlnjF7Y2JFcaJJ-112" value="" style="verticalLabelPosition=bottom;html=1;verticalAlign=top;align=center;shape=mxgraph.floorplan.doorRight;aspect=fixed;direction=north;" vertex="1" parent="1">
          <mxGeometry x="-200" y="270" width="85" height="80" as="geometry" />
        </mxCell>
        <mxCell id="f0SfFcIlnjF7Y2JFcaJJ-113" value="" style="verticalLabelPosition=bottom;html=1;verticalAlign=top;align=center;shape=mxgraph.floorplan.wall;fillColor=strokeColor;direction=south;" vertex="1" parent="1">
          <mxGeometry x="-200" y="50" width="10" height="220" as="geometry" />
        </mxCell>
        <mxCell id="f0SfFcIlnjF7Y2JFcaJJ-114" value="" style="verticalLabelPosition=bottom;html=1;verticalAlign=top;align=center;shape=mxgraph.floorplan.wall;fillColor=strokeColor;" vertex="1" parent="1">
          <mxGeometry x="-200" y="53" width="40" height="10" as="geometry" />
        </mxCell>
        <mxCell id="f0SfFcIlnjF7Y2JFcaJJ-115" value="" style="verticalLabelPosition=bottom;html=1;verticalAlign=top;align=center;shape=mxgraph.floorplan.window;" vertex="1" parent="1">
          <mxGeometry x="-170" y="53" width="80" height="10" as="geometry" />
        </mxCell>
        <mxCell id="f0SfFcIlnjF7Y2JFcaJJ-116" value="" style="verticalLabelPosition=bottom;html=1;verticalAlign=top;align=center;shape=mxgraph.floorplan.wall;fillColor=strokeColor;" vertex="1" parent="1">
          <mxGeometry x="-90" y="54" width="81" height="10" as="geometry" />
        </mxCell>
        <mxCell id="f0SfFcIlnjF7Y2JFcaJJ-117" value="" style="verticalLabelPosition=bottom;html=1;verticalAlign=top;align=center;shape=mxgraph.floorplan.wall;fillColor=strokeColor;direction=south;" vertex="1" parent="1">
          <mxGeometry x="-200" y="350" width="10" height="160" as="geometry" />
        </mxCell>
        <mxCell id="f0SfFcIlnjF7Y2JFcaJJ-118" value="" style="verticalLabelPosition=bottom;html=1;verticalAlign=top;align=center;shape=mxgraph.floorplan.dresser;direction=south;" vertex="1" parent="1">
          <mxGeometry x="-130" y="70" width="65" height="140" as="geometry" />
        </mxCell>
        <mxCell id="f0SfFcIlnjF7Y2JFcaJJ-119" value="" style="verticalLabelPosition=bottom;html=1;verticalAlign=top;align=center;shape=mxgraph.floorplan.dresser;direction=south;" vertex="1" parent="1">
          <mxGeometry x="-130" y="292" width="65" height="154.5" as="geometry" />
        </mxCell>
        <mxCell id="f0SfFcIlnjF7Y2JFcaJJ-120" value="" style="verticalLabelPosition=bottom;html=1;verticalAlign=top;align=center;shape=mxgraph.floorplan.wall;fillColor=strokeColor;direction=south;" vertex="1" parent="1">
          <mxGeometry x="-18" y="493" width="10" height="77" as="geometry" />
        </mxCell>
        <mxCell id="f0SfFcIlnjF7Y2JFcaJJ-122" value="" style="verticalLabelPosition=bottom;html=1;verticalAlign=top;align=center;shape=mxgraph.floorplan.dresser;direction=south;" vertex="1" parent="1">
          <mxGeometry x="-350" y="401.25" width="40" height="77.5" as="geometry" />
        </mxCell>
        <mxCell id="f0SfFcIlnjF7Y2JFcaJJ-123" value="" style="verticalLabelPosition=bottom;html=1;verticalAlign=top;align=center;shape=mxgraph.floorplan.wall;fillColor=strokeColor;direction=south;" vertex="1" parent="1">
          <mxGeometry x="-364.5" y="370" width="10" height="140" as="geometry" />
        </mxCell>
        <mxCell id="f0SfFcIlnjF7Y2JFcaJJ-124" value="" style="verticalLabelPosition=bottom;html=1;verticalAlign=top;align=center;shape=mxgraph.floorplan.doorLeft;aspect=fixed;direction=north;" vertex="1" parent="1">
          <mxGeometry x="-360.5" y="289.5" width="85" height="80" as="geometry" />
        </mxCell>
        <mxCell id="f0SfFcIlnjF7Y2JFcaJJ-126" value="" style="verticalLabelPosition=bottom;html=1;verticalAlign=top;align=center;shape=mxgraph.floorplan.desk_corner;direction=south;" vertex="1" parent="1">
          <mxGeometry x="-354.5" y="70" width="84.5" height="100" as="geometry" />
        </mxCell>
        <mxCell id="f0SfFcIlnjF7Y2JFcaJJ-127" value="" style="verticalLabelPosition=bottom;html=1;verticalAlign=top;align=center;shape=mxgraph.floorplan.desk_corner;direction=east;" vertex="1" parent="1">
          <mxGeometry x="-270" y="70" width="70" height="100" as="geometry" />
        </mxCell>
        <mxCell id="f0SfFcIlnjF7Y2JFcaJJ-128" value="" style="rounded=0;whiteSpace=wrap;html=1;fillColor=#FF0000;" vertex="1" parent="1">
          <mxGeometry x="-39" y="259.5" width="20" height="20" as="geometry" />
        </mxCell>
        <mxCell id="f0SfFcIlnjF7Y2JFcaJJ-129" value="&lt;b&gt;&lt;font style=&quot;font-size: 14px;&quot;&gt;7, 8&lt;/font&gt;&lt;/b&gt;" style="text;html=1;strokeColor=none;fillColor=none;align=center;verticalAlign=middle;whiteSpace=wrap;rounded=0;" vertex="1" parent="1">
          <mxGeometry x="-90" y="249.5" width="39" height="30" as="geometry" />
        </mxCell>
        <mxCell id="f0SfFcIlnjF7Y2JFcaJJ-130" value="" style="verticalLabelPosition=bottom;html=1;verticalAlign=top;align=center;shape=mxgraph.floorplan.couch;direction=west;" vertex="1" parent="1">
          <mxGeometry x="-130" y="443.38" width="106.5" height="53.25" as="geometry" />
        </mxCell>
        <mxCell id="f0SfFcIlnjF7Y2JFcaJJ-131" value="" style="verticalLabelPosition=bottom;html=1;verticalAlign=top;align=center;shape=mxgraph.floorplan.wall;fillColor=strokeColor;direction=south;" vertex="1" parent="1">
          <mxGeometry x="-364.5" y="59.5" width="10" height="236" as="geometry" />
        </mxCell>
        <mxCell id="f0SfFcIlnjF7Y2JFcaJJ-132" value="" style="verticalLabelPosition=bottom;html=1;verticalAlign=top;align=center;shape=mxgraph.floorplan.wall;fillColor=strokeColor;" vertex="1" parent="1">
          <mxGeometry x="-377" y="54" width="57" height="10" as="geometry" />
        </mxCell>
        <mxCell id="f0SfFcIlnjF7Y2JFcaJJ-134" value="" style="verticalLabelPosition=bottom;html=1;verticalAlign=top;align=center;shape=mxgraph.floorplan.window;" vertex="1" parent="1">
          <mxGeometry x="-320" y="54" width="80" height="10" as="geometry" />
        </mxCell>
        <mxCell id="f0SfFcIlnjF7Y2JFcaJJ-135" value="" style="verticalLabelPosition=bottom;html=1;verticalAlign=top;align=center;shape=mxgraph.floorplan.wall;fillColor=strokeColor;" vertex="1" parent="1">
          <mxGeometry x="-240" y="55" width="70" height="10" as="geometry" />
        </mxCell>
        <mxCell id="f0SfFcIlnjF7Y2JFcaJJ-136" value="" style="rounded=0;whiteSpace=wrap;html=1;fillColor=#FF0000;" vertex="1" parent="1">
          <mxGeometry x="-220" y="180" width="20" height="20" as="geometry" />
        </mxCell>
        <mxCell id="f0SfFcIlnjF7Y2JFcaJJ-137" value="&lt;b&gt;&lt;font style=&quot;font-size: 14px;&quot;&gt;3,4&lt;/font&gt;&lt;/b&gt;" style="text;html=1;strokeColor=none;fillColor=none;align=center;verticalAlign=middle;whiteSpace=wrap;rounded=0;" vertex="1" parent="1">
          <mxGeometry x="-270" y="180" width="60" height="30" as="geometry" />
        </mxCell>
        <mxCell id="f0SfFcIlnjF7Y2JFcaJJ-139" value="" style="rounded=0;whiteSpace=wrap;html=1;fillColor=#FF0000;" vertex="1" parent="1">
          <mxGeometry x="-235.5" y="64" width="20" height="20" as="geometry" />
        </mxCell>
        <mxCell id="f0SfFcIlnjF7Y2JFcaJJ-140" value="" style="rounded=0;whiteSpace=wrap;html=1;fillColor=#FF0000;" vertex="1" parent="1">
          <mxGeometry x="-350" y="65" width="20" height="20" as="geometry" />
        </mxCell>
        <mxCell id="f0SfFcIlnjF7Y2JFcaJJ-141" value="&lt;b&gt;&lt;font style=&quot;font-size: 14px;&quot;&gt;5, 6&lt;/font&gt;&lt;/b&gt;" style="text;html=1;strokeColor=none;fillColor=none;align=center;verticalAlign=middle;whiteSpace=wrap;rounded=0;" vertex="1" parent="1">
          <mxGeometry x="-364.5" y="21" width="60" height="30" as="geometry" />
        </mxCell>
        <mxCell id="f0SfFcIlnjF7Y2JFcaJJ-142" value="&lt;b&gt;&lt;font style=&quot;font-size: 14px;&quot;&gt;Не подписано, что-то подключено&lt;/font&gt;&lt;/b&gt;" style="text;html=1;strokeColor=none;fillColor=none;align=center;verticalAlign=middle;whiteSpace=wrap;rounded=0;" vertex="1" parent="1">
          <mxGeometry x="-275.5" width="100" height="30" as="geometry" />
        </mxCell>
        <mxCell id="f0SfFcIlnjF7Y2JFcaJJ-143" value="" style="verticalLabelPosition=bottom;html=1;verticalAlign=top;align=center;shape=mxgraph.floorplan.wall;fillColor=strokeColor;direction=south;" vertex="1" parent="1">
          <mxGeometry x="-509" y="60" width="10" height="445" as="geometry" />
        </mxCell>
        <mxCell id="f0SfFcIlnjF7Y2JFcaJJ-144" value="" style="verticalLabelPosition=bottom;html=1;verticalAlign=top;align=center;shape=mxgraph.floorplan.window;" vertex="1" parent="1">
          <mxGeometry x="-457" y="54" width="80" height="10" as="geometry" />
        </mxCell>
        <mxCell id="f0SfFcIlnjF7Y2JFcaJJ-147" value="" style="verticalLabelPosition=bottom;html=1;verticalAlign=top;align=center;shape=mxgraph.floorplan.wall;fillColor=strokeColor;" vertex="1" parent="1">
          <mxGeometry x="-510" y="56" width="53" height="10" as="geometry" />
        </mxCell>
        <mxCell id="f0SfFcIlnjF7Y2JFcaJJ-148" value="" style="verticalLabelPosition=bottom;html=1;verticalAlign=top;align=center;shape=mxgraph.floorplan.dresser;direction=south;" vertex="1" parent="1">
          <mxGeometry x="-457" y="365" width="44" height="120.5" as="geometry" />
        </mxCell>
        <mxCell id="f0SfFcIlnjF7Y2JFcaJJ-150" value="" style="verticalLabelPosition=bottom;html=1;verticalAlign=top;align=center;shape=mxgraph.floorplan.dresser;direction=south;" vertex="1" parent="1">
          <mxGeometry x="-457" y="144.75" width="44" height="120.5" as="geometry" />
        </mxCell>
        <mxCell id="f0SfFcIlnjF7Y2JFcaJJ-151" value="" style="rounded=0;whiteSpace=wrap;html=1;fillColor=#FF0000;" vertex="1" parent="1">
          <mxGeometry x="-499" y="465.5" width="20" height="20" as="geometry" />
        </mxCell>
        <mxCell id="f0SfFcIlnjF7Y2JFcaJJ-153" value="&lt;b&gt;&lt;font style=&quot;font-size: 14px;&quot;&gt;Не подписано, что-то подключено&lt;/font&gt;&lt;/b&gt;" style="text;html=1;strokeColor=none;fillColor=none;align=center;verticalAlign=middle;whiteSpace=wrap;rounded=0;" vertex="1" parent="1">
          <mxGeometry x="-610" y="455" width="100" height="30" as="geometry" />
        </mxCell>
        <mxCell id="f0SfFcIlnjF7Y2JFcaJJ-154" value="" style="verticalLabelPosition=bottom;html=1;verticalAlign=top;align=center;shape=mxgraph.floorplan.dresser;direction=south;" vertex="1" parent="1">
          <mxGeometry x="62" y="422.5" width="65" height="81.25" as="geometry" />
        </mxCell>
        <mxCell id="f0SfFcIlnjF7Y2JFcaJJ-155" value="" style="verticalLabelPosition=bottom;html=1;verticalAlign=top;align=center;shape=mxgraph.floorplan.dresser;direction=south;" vertex="1" parent="1">
          <mxGeometry x="60" y="300" width="65" height="90" as="geometry" />
        </mxCell>
        <mxCell id="f0SfFcIlnjF7Y2JFcaJJ-157" value="" style="verticalLabelPosition=bottom;html=1;verticalAlign=top;align=center;shape=mxgraph.floorplan.dresser;direction=west;" vertex="1" parent="1">
          <mxGeometry x="90" y="62" width="109.5" height="65" as="geometry" />
        </mxCell>
        <mxCell id="f0SfFcIlnjF7Y2JFcaJJ-158" value="" style="verticalLabelPosition=bottom;html=1;verticalAlign=top;align=center;shape=mxgraph.floorplan.dresser;direction=west;" vertex="1" parent="1">
          <mxGeometry x="-8" y="60" width="98" height="65" as="geometry" />
        </mxCell>
      </root>
    </mxGraphModel>
  </diagram>
</mxfile>
